# xmcd
#
# Track frame offsets:
#	150
#	15360
#	33010
#	53850
#	79663
#	102250
#	126702
#	147215
#	169317
#	184510
#	197831
#	213790
#	230917
#	242873
#	258744
#	276321
#	297830
#
# Disc length: 4175 seconds
#
# Revision: 1
# Processed by: cddbd v1.5.2PL0 Copyright (c) Steve Scherf et al.
# Submitted via: audiograbber 1.82.01
#
DISCID=fc104d11
DTITLE=Various Artist - Русская Дискотека 80-х часть 6
DYEAR=1900
DGENRE=
TTITLE0=Сергей Минае - 22 Притопа
TTITLE1=Алексей Глызин - Ты не ангел
TTITLE2=Кино - Группа крови
TTITLE3=Альянс - На заре
TTITLE4=Круг - Каракум
TTITLE5=Альфа - Театр
TTITLE6=Крис Кельми - Ночное рандеву
TTITLE7=Виктор Салтыков - Островок
TTITLE8=Земляне - Трава у дома
TTITLE9=Рома Жуков - Фея
TTITLE10=Русские - Русские идут
TTITLE11=Сергей Крылов - Девочка моя
TTITLE12=Владимир Маркин - Белая черемуха
TTITLE13=Юрий Лоза - Гараж
TTITLE14=Вадим Усланов - Танцы на воде
TTITLE15=Наталья Гулькина и Маргарита Суханкина - Айвенго
TTITLE16=Александр Барыкин - Летучий голландец
EXTD=
EXTT0=
EXTT1=
EXTT2=
EXTT3=
EXTT4=
EXTT5=
EXTT6=
EXTT7=
EXTT8=
EXTT9=
EXTT10=
EXTT11=
EXTT12=
EXTT13=
EXTT14=
EXTT15=
EXTT16=
PLAYORDER=
